<svg xmlns="http://www.w3.org/2000/svg" viewBox="0 0 121 121"><defs><style>.cls-1{fill:#e4e8f8;}.cls-2,.cls-3{fill:none;stroke:#204ecf;}.cls-3{stroke-miterlimit:10;}</style></defs><title>Asset 364</title><g id="Layer_2" data-name="Layer 2"><g id="Stuff"><path class="cls-1" d="M45.86,30.47l8.28-15.09a4,4,0,0,1,.78,2c0,1,.08,27.42.08,27.42a3,3,0,0,1-.11,1Z"/><path class="cls-1" d="M1.1,47.06l9.7-16.52,17.34,31.6a2.45,2.45,0,0,1-1.89-.36C25.21,61.16,1.1,47.06,1.1,47.06Z"/><path class="cls-1" d="M86,71.74l-23-13.26a5.07,5.07,0,0,0-4.84,0l-23,13.26a4.8,4.8,0,0,0-2.42,4.18V102.4a4.84,4.84,0,0,0,2.42,4.19l6,3.47c2.92,1.44,4,1.44,5.3,1.44,4.33,0,6.82-2.62,6.82-7.17V78.18a.66.66,0,0,0-.66-.66H49.63a.65.65,0,0,0-.66.66v26.14c0,2-2.1,4-5.52,2.33L37.14,103a.72.72,0,0,1-.35-.62V75.92a.75.75,0,0,1,.36-.63l23-13.23a.69.69,0,0,1,.71,0l23,13.23a.75.75,0,0,1,.35.63v26.49a.73.73,0,0,1-.35.62l-23,13.25a.83.83,0,0,1-.72,0l-5.9-3.5a.61.61,0,0,0-.57,0,15.29,15.29,0,0,1-3.48,1.58c-.38.13-.94.36.21,1l7.69,4.54a4.86,4.86,0,0,0,2.41.64h0a4.77,4.77,0,0,0,2.42-.65l23-13.25a4.84,4.84,0,0,0,2.42-4.18V75.92A4.84,4.84,0,0,0,86,71.74Z"/><path class="cls-1" d="M67.61,98.22c-6.09,0-7.43-1.52-7.88-4.54a.66.66,0,0,0-.65-.57h-3a.66.66,0,0,0-.66.66c0,3.87,2.11,8.48,12.18,8.48l0,0c7.3,0,11.48-2.87,11.48-7.87s-3.36-6.28-10.44-7.21-7.87-1.43-7.87-3.11c0-1.37.62-3.21,5.91-3.21,4.73,0,6.48,1,7.2,4.19a.65.65,0,0,0,.64.52h3a.67.67,0,0,0,.67-.73c-.46-5.48-4.11-8-11.49-8-6.56,0-10.48,2.76-10.48,7.39,0,5,3.9,6.41,10.2,7,7.54.74,8.13,1.84,8.13,3.31C74.53,97.13,72.46,98.22,67.61,98.22Z"/><path class="cls-2" d="M86,71.74l-23-13.26a5.07,5.07,0,0,0-4.84,0l-23,13.26a4.8,4.8,0,0,0-2.42,4.18V102.4a4.84,4.84,0,0,0,2.42,4.19l6,3.47c2.92,1.44,4,1.44,5.3,1.44,4.33,0,6.82-2.62,6.82-7.17V78.18a.66.66,0,0,0-.66-.66H49.63a.65.65,0,0,0-.66.66v26.14c0,2-2.1,4-5.52,2.33L37.14,103a.72.72,0,0,1-.35-.62V75.92a.75.75,0,0,1,.36-.63l23-13.23a.69.69,0,0,1,.71,0l23,13.23a.75.75,0,0,1,.35.63v26.49a.73.73,0,0,1-.35.62l-23,13.25a.83.83,0,0,1-.72,0l-5.9-3.5a.61.61,0,0,0-.57,0,15.29,15.29,0,0,1-3.48,1.58c-.38.13-.94.36.21,1l7.69,4.54a4.86,4.86,0,0,0,2.41.64h0a4.77,4.77,0,0,0,2.42-.65l23-13.25a4.84,4.84,0,0,0,2.42-4.18V75.92A4.84,4.84,0,0,0,86,71.74Z"/><path class="cls-2" d="M67.61,98.22c-6.09,0-7.43-1.52-7.88-4.54a.66.66,0,0,0-.65-.57h-3a.66.66,0,0,0-.66.66c0,3.87,2.11,8.48,12.18,8.48l0,0c7.3,0,11.48-2.87,11.48-7.87s-3.36-6.28-10.44-7.21-7.87-1.43-7.87-3.11c0-1.37.62-3.21,5.91-3.21,4.73,0,6.48,1,7.2,4.19a.65.65,0,0,0,.64.52h3a.67.67,0,0,0,.67-.73c-.46-5.48-4.11-8-11.49-8-6.56,0-10.48,2.76-10.48,7.39,0,5,3.9,6.41,10.2,7,7.54.74,8.13,1.84,8.13,3.31C74.53,97.13,72.46,98.22,67.61,98.22Z"/><path class="cls-2" d="M53.46,14.84,29.18.89A2.94,2.94,0,0,0,27.71.5h0a3,3,0,0,0-1.47.39h0L2,14.84A2.92,2.92,0,0,0,.5,17.37V45.29A2.92,2.92,0,0,0,2,47.82l24.28,14a2.95,2.95,0,0,0,2.93,0l24.28-14a2.91,2.91,0,0,0,1.46-2.53V17.37A2.91,2.91,0,0,0,53.46,14.84Z"/><path class="cls-2" d="M119,14.84,94.76.89A3,3,0,0,0,93.29.5h0a2.94,2.94,0,0,0-1.47.39h0l-24.28,14a2.91,2.91,0,0,0-1.46,2.53V45.29a2.91,2.91,0,0,0,1.46,2.53l24.28,14a3,3,0,0,0,2.94,0l24.28-14a2.93,2.93,0,0,0,1.46-2.53V17.37A2.92,2.92,0,0,0,119,14.84Z"/><line class="cls-2" x1="10.8" y1="30.54" x2="1.1" y2="47.06"/><line class="cls-2" x1="45.86" y1="30.47" x2="54.14" y2="15.38"/><line class="cls-2" x1="54.89" y1="45.83" x2="28.27" y2="0.56"/><line class="cls-2" x1="2.04" y1="14.8" x2="28.14" y2="62.14"/><polyline class="cls-3" points="85.38 37.25 79.46 31.34 85.38 25.42"/><polyline class="cls-3" points="101.2 37.25 107.12 31.34 101.2 25.42"/><line class="cls-3" x1="89.38" y1="42.54" x2="97.2" y2="20.13"/></g></g></svg>